<?xml version="1.0" encoding="UTF-8"?><svg id="a" xmlns="http://www.w3.org/2000/svg" viewBox="0 0 32 32"><g id="b"><polygon points="16 15.18 15.2 15.98 16 15.98 16.8 15.98 16 15.18" fill="#9e6b3b"/><g><polygon points="19.2 14.38 18.4 14.38 19.2 15.18 20 14.38 19.2 14.38" fill="#6b4f1f"/><polygon points="12 14.38 12.8 15.18 13.6 14.38 12.8 14.38 12 14.38" fill="#6b4f1f"/></g><g><polygon points="20 14.38 19.2 15.18 20 15.18 20.8 15.18 20.8 14.38 20 14.38" fill="#ede4bb"/><polygon points="17.6 15.18 18.4 15.18 19.2 15.18 18.4 14.38 17.6 15.18" fill="#ede4bb"/><polygon points="12.8 15.18 13.6 15.18 14.4 15.18 13.6 14.38 12.8 15.18" fill="#ede4bb"/><polygon points="11.2 14.38 11.2 15.18 12 15.18 12.8 15.18 12 14.38 11.2 14.38" fill="#ede4bb"/></g><g><polygon points="17.6 12.78 18.4 12.78 19.2 12.78 20 12.78 20.8 12.78 21.6 12.78 22.4 12.78 22.4 11.98 21.6 11.18 20.8 10.38 20 10.38 19.2 10.38 18.4 10.38 17.6 10.38 16.8 11.18 16 11.98 15.2 11.18 14.4 10.38 13.6 10.38 12.8 10.38 12 10.38 11.2 10.38 10.4 11.18 9.6 11.98 9.6 12.78 10.4 12.78 11.2 12.78 12 12.78 12.8 12.78 13.6 12.78 14.4 12.78 15.2 12.78 16 13.58 16.8 12.78 17.6 12.78" fill="#c69463"/><polygon points="15.2 19.18 16 19.18 16.8 19.18 16 18.38 15.2 19.18" fill="#c69463"/><polygon points="15.2 15.98 16 16.78 16.8 15.98 16 15.98 15.2 15.98" fill="#c69463"/><polygon points="14.4 14.38 13.6 14.38 14.4 15.18 13.6 15.18 12.8 15.18 12 15.18 11.2 15.18 11.2 14.38 10.4 14.38 9.6 13.58 9.6 14.38 9.6 15.18 9.6 15.98 9.6 16.78 10.4 17.58 11.2 16.78 12 15.98 12.8 15.98 13.6 15.98 14.4 15.98 15.2 15.98 16 15.18 16.8 15.98 17.6 15.98 18.4 15.98 19.2 15.98 20 15.98 20.8 16.78 21.6 17.58 22.4 16.78 22.4 15.98 22.4 15.18 22.4 14.38 22.4 13.58 21.6 14.38 20.8 14.38 20.8 15.18 20 15.18 19.2 15.18 18.4 15.18 17.6 15.18 18.4 14.38 17.6 14.38 16.8 14.38 16 13.58 15.2 14.38 14.4 14.38" fill="#c69463"/></g><path d="M24,15.18v-3.2l-.8-.8v-3.2l-.8,.8H12.8l-.8-.8v.8h-.8l-.8,.8h-1.6v.8h-.8v4.8l-.8-.8v3.2l.8,.8v1.6l.8,.8,.8,.8,.8,.8,.8,.8,.8,.8h8l.8-.8,.8-.8,.8-.8,.8-.8,.8-.8v-1.6l.8-.8v-3.2l-.8,.8Zm-12-4.8h2.4l.8,.8,.8,.8,.8-.8,.8-.8h3.2l.8,.8,.8,.8v.8h-5.6l-.8,.8,.8,.8h4.8l.8-.8v3.2l-.8,.8-.8-.8-.8-.8h-3.2l-.8,.8-.8-.8h-3.2l-.8,.8-.8,.8-.8-.8v-3.2l.8,.8h4.8l.8-.8-.8-.8h-5.6v-.8l.8-.8,.8-.8h.8Zm4.8,8.8h-1.6l.8-.8,.8,.8Z" fill="#a65225"/></g><g id="c"/></svg>