<?xml version="1.0" encoding="UTF-8"?><svg id="a" xmlns="http://www.w3.org/2000/svg" viewBox="0 0 32 32"><g id="b"><path d="M14.4,26.4h-.8v4h1.6v-3.2l-.8-.8Z" fill="#6b4f1f"/><polygon points="12.8 30.4 12 30.4 12.8 31.2 13.6 30.4 12.8 30.4" fill="#ede4bb"/><path d="M12.8,26.4h-.8v4h1.6v-4h-.8Z" fill="#9e7a2c"/><path d="M14.4,30.4h-.8l-.8,.8-.8-.8-.8,.8v.8h4v-1.6h-.8Z" fill="#89532a"/></g><g id="c"><g><polygon points="10.4 27.2 11.2 27.2 11.2 26.4 10.4 27.2" fill="#9e6b3b"/><polygon points="8 23.2 8.8 23.2 9.6 23.2 8.8 22.4 8 23.2" fill="#9e6b3b"/></g><g><polygon points="10.4 24.8 10.4 25.6 10.4 26.4 11.2 26.4 11.2 25.6 11.2 24.8 10.4 24.8" fill="#6b4f1f"/><polygon points="7.2 22.4 8 23.2 8.8 22.4 8 22.4 7.2 22.4" fill="#6b4f1f"/></g><g><polygon points="11.2 26.4 11.2 27.2 10.4 27.2 11.2 26.4 10.4 26.4 9.6 26.4 8.8 27.2 8 28 7.2 28.8 8 29.6 8.8 29.6 9.6 29.6 10.4 28.8 11.2 28 12 27.2 11.2 26.4" fill="#c69463"/><polygon points="8.8 24.8 9.6 24.8 10.4 24.8 11.2 24.8 10.4 24 9.6 23.2 8.8 23.2 8 23.2 7.2 24 7.2 24.8 8 24.8 8.8 24.8" fill="#c69463"/></g><rect x="6.63" y="25.83" width="1.13" height="1.13" transform="translate(-16.56 12.82) rotate(-45)" fill="#ede4bb"/><g><polygon points="10.4 20 9.6 20 8.8 20.8 8 21.6 7.2 21.6 7.2 22.4 8 22.4 8.8 22.4 9.6 23.2 10.4 24 11.2 24.8 11.2 24 11.2 23.2 11.2 22.4 11.2 21.6 11.2 20.8 11.2 20 10.4 20" fill="#9e7a2c"/><polygon points="8.8 24.8 8 24.8 7.2 24.8 6.4 24.8 6.4 25.6 6.4 26.4 7.2 25.6 8 26.4 7.2 27.2 6.4 26.4 6.4 27.2 6.4 28 7.2 28.8 8 28 8.8 27.2 9.6 26.4 10.4 26.4 10.4 25.6 10.4 24.8 9.6 24.8 8.8 24.8" fill="#9e7a2c"/></g></g><g id="d"><path d="M17.6,26.4h.8v4h-1.6v-3.2l.8-.8Z" fill="#6b4f1f"/><polygon points="19.2 30.4 20 30.4 19.2 31.2 18.4 30.4 19.2 30.4" fill="#ede4bb"/><path d="M19.2,26.4h.8v4h-1.6v-4h.8Z" fill="#9e7a2c"/><path d="M17.6,30.4h.8l.8,.8,.8-.8,.8,.8v.8h-4v-1.6h.8Z" fill="#89532a"/></g><g id="e"><rect x="15.43" y="26.63" width="1.13" height="1.13" transform="translate(-14.55 19.28) rotate(-45)" fill="#ede4bb"/><g><polygon points="19.2 26.4 18.4 26.4 17.6 26.4 16.8 26.4 16 26.4 16.8 27.2 16 28 16.8 28 17.6 28 18.4 28 19.2 28 20 28 20 27.2 20 26.4 19.2 26.4" fill="#89532a"/><polygon points="16 26.4 15.2 26.4 14.4 26.4 13.6 26.4 12.8 26.4 12 26.4 12 27.2 12 28 12.8 28 13.6 28 14.4 28 15.2 28 16 28 15.2 27.2 16 26.4" fill="#89532a"/></g><g><path d="M20,23.2v-2.4l.8-.8-.8-.8H12l-.8,.8,.8,.8v3.2l-.8,.8,.8,.8,.8,.8h6.4l.8-.8,.8-.8-.8-.8v-.8Zm-7.2-2.4v-.8h6.4v1.6l-.8,.8h-1.6v1.6l-.8,.8-.8-.8v-1.6h-1.6l-.8-.8v-.8Z" fill="#9e7a2c"/><polygon points="16 28 15.2 28 14.4 28 15.2 28.8 16 28.8 16.8 28.8 17.6 28 16.8 28 16 28" fill="#9e7a2c"/></g><g><polygon points="20 20.8 20 21.6 20 22.4 20 23.2 20 24 20.8 24.8 20.8 24 20.8 23.2 20.8 22.4 20.8 21.6 20.8 20.8 20.8 20 20 20.8" fill="#6b4f1f"/><polygon points="20 26.4 20 25.6 19.2 26.4 20 26.4" fill="#6b4f1f"/><polygon points="19.2 20.8 19.2 20 18.4 20 17.6 20 16.8 20 16 20 15.2 20 14.4 20 13.6 20 12.8 20 12.8 20.8 12.8 21.6 13.6 22.4 14.4 22.4 15.2 22.4 15.2 23.2 15.2 24 16 24.8 16.8 24 16.8 23.2 16.8 22.4 17.6 22.4 18.4 22.4 19.2 21.6 19.2 20.8" fill="#6b4f1f"/><polygon points="12 26.4 12.8 26.4 12 25.6 12 26.4" fill="#6b4f1f"/><polygon points="12 23.2 12 22.4 12 21.6 12 20.8 11.2 20 11.2 20.8 11.2 21.6 11.2 22.4 11.2 23.2 11.2 24 11.2 24.8 12 24 12 23.2" fill="#6b4f1f"/></g></g><g id="f"><g><polygon points="20.8 27.2 21.6 27.2 20.8 26.4 20.8 27.2" fill="#9e6b3b"/><polygon points="23.2 22.4 22.4 23.2 23.2 23.2 24 23.2 23.2 22.4" fill="#9e6b3b"/></g><g><polygon points="20.8 25.6 20.8 26.4 21.6 26.4 21.6 25.6 21.6 24.8 20.8 24.8 20.8 25.6" fill="#6b4f1f"/><polygon points="24 22.4 23.2 22.4 24 23.2 24.8 22.4 24 22.4" fill="#6b4f1f"/></g><g><polygon points="23.2 27.2 22.4 26.4 21.6 26.4 20.8 26.4 21.6 27.2 20.8 27.2 20.8 26.4 20 27.2 20.8 28 21.6 28.8 22.4 29.6 23.2 29.6 24 29.6 24.8 28.8 24 28 23.2 27.2" fill="#c69463"/><polygon points="24 23.2 23.2 23.2 22.4 23.2 21.6 24 20.8 24.8 21.6 24.8 22.4 24.8 23.2 24.8 24 24.8 24.8 24.8 24.8 24 24 23.2" fill="#c69463"/></g><rect x="24.23" y="25.83" width="1.13" height="1.13" transform="translate(-11.4 25.27) rotate(-45)" fill="#ede4bb"/><g><polygon points="22.4 23.2 23.2 22.4 24 22.4 24.8 22.4 24.8 21.6 24 21.6 23.2 20.8 22.4 20 21.6 20 20.8 20 20.8 20.8 20.8 21.6 20.8 22.4 20.8 23.2 20.8 24 20.8 24.8 21.6 24 22.4 23.2" fill="#9e7a2c"/><polygon points="24.8 24.8 24 24.8 23.2 24.8 22.4 24.8 21.6 24.8 21.6 25.6 21.6 26.4 22.4 26.4 23.2 27.2 24 28 24.8 28.8 25.6 28 25.6 27.2 25.6 26.4 24.8 27.2 24 26.4 24.8 25.6 25.6 26.4 25.6 25.6 25.6 24.8 24.8 24.8" fill="#9e7a2c"/></g></g><g id="g"/></svg>