<?xml version="1.0" encoding="UTF-8"?><svg id="a" xmlns="http://www.w3.org/2000/svg" viewBox="0 0 32 32"><g id="b"/><g><path d="M16,22.7h-1.16v1.16h2.33v-1.16h-1.16Z" fill="#56504e"/><g><path d="M24.14,14.56H6.7v5.81H25.3v-5.81h-1.16Z" fill="#8a3928"/><path d="M24.52,22.7h-6.2v2.33h-4.65v-2.33H6.7v5.81H25.3v-5.81h-.78Z" fill="#8a3928"/></g><g><path d="M26.46,14.56h-1.16v1.16h2.33v-1.16h-1.16Z" fill="#cec1b9"/><path d="M22.98,20.37H6.7v1.16H25.3v-1.16h-2.33Z" fill="#cec1b9"/><path d="M22.98,28.51H6.7v1.16H25.3v-1.16h-2.33Z" fill="#cec1b9"/><path d="M6.7,14.56h-2.33v1.16h2.33v-1.16Z" fill="#cec1b9"/></g><g><path d="M26.46,13.4h-1.16l-1.16,1.16h3.49v-1.16h-1.16Z" fill="#948d88"/><path d="M25.3,15.72v5.81H6.7v-5.81h-2.33V32H27.63V15.72h-2.33Zm-9.3,6.98h1.16v1.16h-2.33v-1.16h1.16Zm5.81,6.98H6.7v-6.98h6.98v2.33h4.65v-2.33h6.98v6.98h-3.49Z" fill="#948d88"/><path d="M6.7,14.56h1.16l-1.16-1.16h-2.33v1.16h2.33Z" fill="#948d88"/></g></g></svg>