<?xml version="1.0" encoding="UTF-8"?><svg id="a" xmlns="http://www.w3.org/2000/svg" viewBox="0 0 32 32"><g id="b"/><g><path d="M24.52,22.7h-6.2v2.33h-4.65v-2.33H6.7v5.81H25.3v-5.81h-.78Z" fill="#8a3928"/><g><path d="M24.14,16.89v1.16h-2.33v-1.16H10.19v1.16h-2.33v-1.16h-1.16v3.49H25.3v-3.49h-1.16Z" fill="#56504e"/><path d="M16,22.7h-1.16v1.16h2.33v-1.16h-1.16Z" fill="#56504e"/></g><g><path d="M26.46,8.75H4.37v1.16H27.63v-1.16h-1.16Z" fill="#cec1b9"/><path d="M25.3,16.89v3.49H6.7v-3.49h-2.33v4.65H27.63v-4.65h-2.33Z" fill="#cec1b9"/><path d="M24.14,16.89v-1.16h-2.33v1.16h2.33Z" fill="#cec1b9"/><path d="M10.19,16.89v-1.16h-2.33v1.16h2.33Z" fill="#cec1b9"/><path d="M22.98,28.51H6.7v1.16H25.3v-1.16h-2.33Z" fill="#cec1b9"/></g><g><path d="M26.46,9.91H4.37v6.98h3.49v-1.16h-1.16v-4.65H25.3v4.65h-1.16v1.16h3.49v-6.98h-1.16Z" fill="#948d88"/><path d="M21.81,16.89v1.16h2.33v-1.16h-2.33Z" fill="#948d88"/><path d="M20.65,15.72H10.19v1.16h11.63v-1.16h-1.16Z" fill="#948d88"/><path d="M7.86,16.89v1.16h2.33v-1.16h-2.33Z" fill="#948d88"/><path d="M25.3,21.54H4.37v10.46H27.63v-10.46h-2.33Zm-9.3,1.16h1.16v1.16h-2.33v-1.16h1.16Zm5.81,6.98H6.7v-6.98h6.98v2.33h4.65v-2.33h6.98v6.98h-3.49Z" fill="#948d88"/></g><path d="M24.14,11.07H6.7v4.65H25.3v-4.65h-1.16Z" fill="#6b4528"/></g></svg>