<svg id="Layer_1" data-name="Layer 1" xmlns="http://www.w3.org/2000/svg" viewBox="0 0 160 160"><path d="M369.6,369h-132V489h136V369Zm-84,36h28v36h-32V405Z" transform="translate(-217.6 -340.96)" fill="#9f9840"/><path d="M369.6,353h-148V489h16V369h136V353Z" transform="translate(-217.6 -340.96)" fill="#606640"/><polygon points="156 108 160 104 156 104 156 108" fill="#3d403c"/><path d="M373.6,377v8l4-4Z" transform="translate(-217.6 -340.96)" fill="#3d403c"/><polygon points="148 152 144 152 148 156 152 152 148 152" fill="#3d403c"/><polygon points="152 160 148 156 148 160 152 160" fill="#3d403c"/><path d="M353.6,349v-8l-4,4Z" transform="translate(-217.6 -340.96)" fill="#3d403c"/><polygon points="96 84 96 80 92 84 96 84" fill="#3d403c"/><polygon points="60 152 60 156 64 152 60 148 60 152" fill="#3d403c"/><polygon points="60 160 60 156 56 160 60 160" fill="#3d403c"/><polygon points="56 12 60 12 56 8 52 12 56 12" fill="#3d403c"/><path d="M273.6,341l-4,4,4,4Z" transform="translate(-217.6 -340.96)" fill="#3d403c"/><path d="M221.6,473v-8l-4,4Z" transform="translate(-217.6 -340.96)" fill="#3d403c"/><polygon points="4 56 4 52 0 56 4 56" fill="#3d403c"/><rect x="156" width="4" height="4" fill="#b2a97d"/><rect x="156" y="148" width="4" height="4" fill="#b2a97d"/><path d="M301.6,409h-16v20h24V409Z" transform="translate(-217.6 -340.96)" fill="#b2a97d"/><rect y="148" width="4" height="4" fill="#b2a97d"/><rect width="4" height="4" fill="#b2a97d"/><path d="M373.6,345v32l4,4V345Z" transform="translate(-217.6 -340.96)" fill="#c4bb8e"/><path d="M373.6,389v56h4V381l-4,4Z" transform="translate(-217.6 -340.96)" fill="#c4bb8e"/><path d="M373.6,453v36h4V445l-4,4Z" transform="translate(-217.6 -340.96)" fill="#c4bb8e"/><path d="M365.6,489h-88l4,4h92v-4Z" transform="translate(-217.6 -340.96)" fill="#c4bb8e"/><path d="M357.6,345h16v-4h-20v4Z" transform="translate(-217.6 -340.96)" fill="#c4bb8e"/><path d="M305.6,405h-24v28h32v-8h-4v4h-24V409h24v16l4-4V405Z" transform="translate(-217.6 -340.96)" fill="#c4bb8e"/><path d="M277.6,345h72l4-4h-80v4Z" transform="translate(-217.6 -340.96)" fill="#c4bb8e"/><path d="M269.6,489h-48v4h56v-4Z" transform="translate(-217.6 -340.96)" fill="#c4bb8e"/><path d="M229.6,345h40l4-4h-52v4Z" transform="translate(-217.6 -340.96)" fill="#c4bb8e"/><path d="M221.6,481v-8l-4-4v20h4Z" transform="translate(-217.6 -340.96)" fill="#c4bb8e"/><path d="M221.6,461V397h-4v72l4-4Z" transform="translate(-217.6 -340.96)" fill="#c4bb8e"/><path d="M221.6,389V345h-4v52l4-4Z" transform="translate(-217.6 -340.96)" fill="#c4bb8e"/><path d="M373.6,493h-4l-4,4,4,4h8v-8Z" transform="translate(-217.6 -340.96)" fill="#495150"/><path d="M357.6,493h-76l-4,4v4h88v-4l-4-4Z" transform="translate(-217.6 -340.96)" fill="#495150"/><path d="M305.6,433h-24v8h32v-8Z" transform="translate(-217.6 -340.96)" fill="#495150"/><path d="M281.6,353h92v-8h-20v4l-4-4h-76v4l4,4Z" transform="translate(-217.6 -340.96)" fill="#495150"/><path d="M273.6,493h-56v8h56l4-4v-4Z" transform="translate(-217.6 -340.96)" fill="#495150"/><path d="M269.6,353l4-4-4-4h-48v8Z" transform="translate(-217.6 -340.96)" fill="#495150"/></svg>